<svg width="153" height="162" viewBox="0 0 153 162" fill="none" xmlns="http://www.w3.org/2000/svg">
<g id="icon_dishwasher">
<g id="Group 1000002275">
<g id="Rectangle 43">
<mask id="path-1-inside-1_6107_363" fill="white">
<rect x="21.5" y="153.381" width="112" height="8" rx="1.52381"/>
</mask>
<rect x="21.5" y="153.381" width="112" height="8" rx="1.52381" fill="#EEEEEE" stroke="#B1B1B1" stroke-width="6" mask="url(#path-1-inside-1_6107_363)"/>
</g>
<rect id="Rectangle 42" x="9" y="1.5" width="137" height="153" rx="1.54762" fill="#E0E9F0" stroke="#B1B1B1" stroke-width="3"/>
<rect id="Rectangle 33" x="94.5" y="15" width="7.14286" height="39.1429" rx="2.04762" transform="rotate(-90 94.5 15)" stroke="#B1B1B1" stroke-width="2"/>
<circle id="Ellipse 86" cx="22.5" cy="11" r="4" fill="#083475"/>
<circle id="Ellipse 87" cx="38.5" cy="11" r="4" fill="#083475"/>
<circle id="Ellipse 88" cx="54.5" cy="11" r="4" fill="#083475"/>
<g id="Vector 6">
<path fill-rule="evenodd" clip-rule="evenodd" d="M23.5003 26.9048H129.405C131.437 27.1588 135.5 28.581 135.5 32.2381V141.19C135.246 142.46 133.977 145 130.929 145H21.9765C20.7067 145 18.167 144.238 18.167 141.19V31.4762C18.167 29.9524 19.2337 26.9048 23.5003 26.9048ZM129.405 32.2381L23.5003 31.4762V139.667H129.405V32.2381Z" fill="#FEFEFE"/>
<path d="M23.5003 31.4762L129.405 32.2381V139.667H23.5003V31.4762Z" fill="#FEFEFE"/>
<path d="M135.5 32.2381C135.5 28.581 131.437 27.1588 129.405 26.9048H23.5003C19.2337 26.9048 18.167 29.9524 18.167 31.4762M135.5 32.2381C135.5 35.8953 135.5 106.397 135.5 141.191M135.5 32.2381V141.191M135.5 141.191C135.246 142.46 133.977 145 130.929 145M130.929 145C127.881 145 57.0241 145 21.9765 145M130.929 145H21.9765M21.9765 145C20.7067 145 18.167 144.238 18.167 141.191M18.167 141.191C18.167 138.143 18.167 66.7778 18.167 31.4762M18.167 141.191V31.4762M23.5003 31.4762L129.405 32.2381V139.667H23.5003V31.4762Z" stroke="#B1B1B1" stroke-width="1.52381"/>
</g>
<g id="plate">
<circle id="Ellipse 90" cx="69.9761" cy="61.9524" r="17.5238" fill="#FEFEFE" stroke="#B1B1B1" stroke-width="1.52381"/>
<circle id="Ellipse 89" cx="69.9766" cy="61.9524" r="11.6905" fill="#F1F1F1" stroke="#B1B1B1"/>
</g>
<g id="plate_2">
<circle id="Ellipse 90_2" cx="62.357" cy="61.9524" r="17.5238" fill="#FEFEFE" stroke="#B1B1B1" stroke-width="1.52381"/>
<circle id="Ellipse 89_2" cx="62.3575" cy="61.9524" r="11.6905" fill="#F1F1F1" stroke="#B1B1B1"/>
</g>
<g id="plate_3">
<circle id="Ellipse 90_3" cx="51.69" cy="61.9524" r="17.5238" fill="#FEFEFE" stroke="#B1B1B1" stroke-width="1.52381"/>
<circle id="Ellipse 89_3" cx="51.6905" cy="61.9524" r="11.6905" fill="#F1F1F1" stroke="#B1B1B1"/>
</g>
<g id="Vector 5">
<path d="M95.8807 58.1429H115.69V74.1429C115.69 75.6667 115.081 78.7143 112.643 78.7143H98.9283C97.4045 77.6984 94.6617 74.9048 95.8807 71.8572H91.3094C90.8015 70.3334 90.0904 66.3715 91.3094 62.7143H95.8807V58.1429Z" fill="#F1F1F1"/>
<path d="M115.69 104.619H86.7379C86.6065 105.67 86.5215 106.686 86.4784 107.667C86.4197 109.001 86.4385 110.271 86.5234 111.476C86.8045 115.467 87.8094 118.755 89.1184 121.381C89.7879 122.724 90.537 123.894 91.3094 124.896C92.897 126.956 94.5833 128.308 95.8807 129H107.309C116.452 122.905 116.706 110.206 115.69 104.619Z" fill="#F1F1F1"/>
<path d="M65.4046 129C72.7189 123.514 74.5475 115.032 74.5475 111.476H71.4998H39.4998H35.6903C36.9094 120.619 42.8014 126.968 45.5951 129H65.4046Z" fill="#F1F1F1"/>
<path d="M71.4998 111.476C75.157 107.819 75.0554 101.825 74.5475 99.2857L71.4998 99.8572L39.4998 105.857L37.976 106.143C37.976 106.905 38.2808 109.038 39.4998 111.476H71.4998Z" fill="#F1F1F1"/>
<path d="M71.4998 99.8572C73.9379 94.8286 72.5157 88.7461 71.4998 86.3334L35.6903 101.571C35.6903 102.397 36.4522 104.41 39.4998 105.857L71.4998 99.8572Z" fill="#F1F1F1"/>
<path d="M112.643 78.7143C115.081 78.7143 115.69 75.6667 115.69 74.1429V58.1429H95.8807V62.7143H91.3094C90.0904 66.3715 90.8015 70.3334 91.3094 71.8572H95.8807C94.6617 74.9048 97.4045 77.6984 98.9283 78.7143M112.643 78.7143C110.205 78.7143 102.484 78.7143 98.9283 78.7143M112.643 78.7143H98.9283M95.8807 65C95.3728 66.2699 94.6616 68.9619 95.8807 69.5715M86.4784 107.667C86.5215 106.686 86.6065 105.67 86.7379 104.619H115.69C116.706 110.206 116.452 122.905 107.309 129H95.8807C94.5833 128.308 92.897 126.956 91.3094 124.896M86.4784 107.667C84.0252 107.921 79.1189 109.648 79.1189 114.524C79.1189 120.619 82.1667 123.84 91.3094 124.896M86.4784 107.667C86.4197 109.001 86.4385 110.271 86.5234 111.476M91.3094 124.896C90.537 123.894 89.7879 122.724 89.1184 121.381M86.5234 111.476C85.3251 111.476 82.9284 112.086 82.9284 114.524C82.9284 117.571 86.9273 120.619 89.1184 121.381M86.5234 111.476C86.8045 115.467 87.8094 118.755 89.1184 121.381M71.4998 111.476H74.5475C74.5475 115.032 72.7189 123.514 65.4046 129H45.5951C42.8014 126.968 36.9094 120.619 35.6903 111.476H39.4998M71.4998 111.476C75.157 107.819 75.0554 101.825 74.5475 99.2857L71.4998 99.8572M71.4998 111.476H39.4998M39.4998 111.476C38.2808 109.038 37.976 106.905 37.976 106.143L39.4998 105.857M71.4998 99.8572C73.9379 94.8286 72.5157 88.7461 71.4998 86.3334L35.6903 101.571C35.6903 102.397 36.4522 104.41 39.4998 105.857M71.4998 99.8572L39.4998 105.857M31.8808 68.0476V77.1905C31.6268 78.2064 31.576 80.2381 33.4046 80.2381C35.2332 80.2381 91.5633 80.2381 119.5 80.2381C120.262 79.9842 121.785 79.1715 121.785 77.9524C121.785 76.7334 121.785 70.5571 121.785 67.6213M31.8808 117.571V127.476C31.8808 128.238 32.1854 129.762 33.4045 129.762C34.6235 129.762 90.8013 129.762 118.738 129.762C119.754 129.86 121.785 129.54 121.785 127.476C121.785 125.412 121.785 120.013 121.785 117.571" stroke="#B1B1B1" stroke-width="1.52381"/>
</g>
<line id="Line 3" x1="7.5" y1="20.3095" x2="144.643" y2="20.3095" stroke="#B1B1B1" stroke-width="3"/>
</g>
</g>
</svg>
