<svg width="153" height="162" viewBox="0 0 153 162" fill="none" xmlns="http://www.w3.org/2000/svg">
<g id="icon_freezer">
<g id="Group 1000002272">
<g id="Vector 1">
<path d="M33.0255 124.102H121.148V145.944C120.897 147.953 119.19 152.12 114.37 152.723C109.549 153.326 61.6465 152.974 38.2978 152.723C35.8 152.696 33.0255 149.56 33.0255 145.944V124.102Z" fill="#E0E9F0"/>
<path d="M33.0255 40.4983H121.148V118.83H33.0255V40.4983Z" fill="#E0E9F0"/>
<path fill-rule="evenodd" clip-rule="evenodd" d="M57.8806 157.242H95.5399V161.008H106.084V157.242H116.629C120.395 157.242 125.065 153.777 125.667 145.944C126.27 138.111 125.918 52.8004 125.667 11.1241C125.416 8.11137 123.257 1.93525 116.629 1.3327C110.001 0.73015 60.6423 1.08164 36.7914 1.3327C33.0255 1.37234 27 4.49605 27 11.1241V145.944C27 149.71 30.1634 157.242 36.7914 157.242H46.5828V161.008H57.8806V157.242ZM121.148 35.226H33.0255V11.1241C33.0255 7.60373 36.0382 5.09863 39.8042 5.09863H114.37C118.889 5.09863 121.148 9.61778 121.148 14.1369V35.226ZM121.148 40.4983H33.0255V118.83H121.148V40.4983ZM121.148 124.102H33.0255V145.944C33.0255 149.56 35.8 152.696 38.2978 152.723C61.6465 152.974 109.549 153.326 114.37 152.723C119.19 152.12 120.897 147.953 121.148 145.944V124.102Z" fill="white"/>
<path d="M33.0255 35.226H121.148V14.1369C121.148 9.61778 118.889 5.09863 114.37 5.09863H39.8042C36.0382 5.09863 33.0255 7.60373 33.0255 11.1241M33.0255 35.226C33.0255 28.1963 33.0255 13.5343 33.0255 11.1241M33.0255 35.226V11.1241M33.0255 124.102H121.148V145.944C120.897 147.953 119.19 152.12 114.37 152.723C109.549 153.326 61.6465 152.974 38.2978 152.723C35.8 152.696 33.0255 149.56 33.0255 145.944M33.0255 124.102C33.0255 129.876 33.0255 142.329 33.0255 145.944M33.0255 124.102V145.944M27 11.1241C27 4.49605 33.0255 1.37234 36.7914 1.3327C60.6423 1.08164 110.001 0.73015 116.629 1.3327C123.257 1.93525 125.416 8.11137 125.667 11.1241C125.918 52.8004 126.27 138.111 125.667 145.944C125.065 153.777 120.395 157.242 116.629 157.242H106.084V161.008H95.5399V157.242H57.8806V161.008H46.5828V157.242M27 11.1241C27 17.7522 27 103.766 27 145.944M27 11.1241V145.944M27 145.944C27 149.71 30.1634 157.242 36.7914 157.242M36.7914 157.242C43.4194 157.242 46.0807 157.242 46.5828 157.242M36.7914 157.242H46.5828M33.0255 40.4983H121.148V118.83H33.0255V40.4983Z" stroke="#B1B1B1" stroke-width="2"/>
</g>
<rect id="Rectangle 29" x="38.2979" y="69.1194" width="6" height="20" rx="3" fill="#083475"/>
<rect id="Rectangle 30" x="42.5696" y="134.647" width="4.49363" height="68.4936" rx="2.24681" transform="rotate(-90 42.5696 134.647)" stroke="#B1B1B1" stroke-width="1.50637"/>
<rect id="Rectangle 31" x="42.5696" y="145.191" width="4.49363" height="68.4936" rx="2.24681" transform="rotate(-90 42.5696 145.191)" stroke="#B1B1B1" stroke-width="1.50637"/>
</g>
<g id="Vector">
<mask id="path-6-inside-1_6120_570" fill="white">
<path d="M145.041 92.0145L139.246 88.6691L141.825 87.9709C142.204 87.8823 142.561 87.7181 142.875 87.488C143.189 87.258 143.454 86.9668 143.654 86.6318C143.853 86.2968 143.984 85.9248 144.037 85.5381C144.091 85.1514 144.066 84.7579 143.965 84.3809C143.864 84.0039 143.688 83.6512 143.449 83.3439C143.209 83.0365 142.91 82.7808 142.57 82.5918C142.229 82.4029 141.855 82.2847 141.468 82.2443C141.081 82.2038 140.69 82.2419 140.318 82.3564L132.147 84.5673L124.295 80L132.147 75.4327L140.318 77.6436H141.072C141.84 77.7439 142.617 77.5336 143.231 77.059C143.845 76.5844 144.246 75.8843 144.346 75.1127C144.446 74.3412 144.236 73.5614 143.764 72.9449C143.291 72.3284 142.593 71.9258 141.825 71.8255L139.246 71.2727L145.041 67.9273C145.372 67.7363 145.663 67.4817 145.896 67.178C146.129 66.8743 146.3 66.5276 146.399 66.1575C146.499 65.7874 146.525 65.4012 146.476 65.0211C146.427 64.6409 146.304 64.2742 146.113 63.9418C145.923 63.6095 145.669 63.318 145.367 63.084C145.065 62.85 144.719 62.6782 144.351 62.5782C143.982 62.4783 143.597 62.4522 143.219 62.5015C142.84 62.5508 142.475 62.6744 142.144 62.8655L135.885 66.5309L136.754 63.3018C136.868 62.9285 136.906 62.5361 136.866 62.1477C136.826 61.7594 136.708 61.3832 136.52 61.0415C136.332 60.6999 136.077 60.3997 135.771 60.159C135.465 59.9182 135.113 59.7418 134.738 59.6402C134.362 59.5387 133.97 59.514 133.585 59.5678C133.2 59.6215 132.83 59.7525 132.496 59.9531C132.162 60.1536 131.872 60.4195 131.643 60.7349C131.414 61.0503 131.25 61.4089 131.162 61.7891L128.786 70.5164L121.398 74.9673V65.8618L127.395 59.84C127.935 59.2949 128.238 58.5576 128.238 57.7891C128.238 57.0205 127.935 56.2832 127.395 55.7382C127.126 55.4655 126.806 55.2491 126.452 55.1014C126.099 54.9537 125.721 54.8777 125.338 54.8777C124.956 54.8777 124.577 54.9537 124.224 55.1014C123.871 55.2491 123.55 55.4655 123.281 55.7382L121.398 57.6291V50.9091C121.398 50.1376 121.092 49.3976 120.549 48.8521C120.005 48.3065 119.268 48 118.5 48C117.732 48 116.995 48.3065 116.451 48.8521C115.908 49.3976 115.602 50.1376 115.602 50.9091V58.0945L113.255 55.7382C112.986 55.4655 112.666 55.2491 112.313 55.1014C111.959 54.9537 111.581 54.8777 111.198 54.8777C110.816 54.8777 110.437 54.9537 110.084 55.1014C109.731 55.2491 109.41 55.4655 109.141 55.7382C108.601 56.2832 108.298 57.0205 108.298 57.7891C108.298 58.5576 108.601 59.2949 109.141 59.84L115.602 66.3273V75.0545L108.156 70.6327L105.78 61.9055C105.692 61.5252 105.528 61.1667 105.299 60.8513C105.07 60.5358 104.78 60.2699 104.446 60.0694C104.112 59.8689 103.742 59.7379 103.357 59.6841C102.972 59.6304 102.58 59.655 102.204 59.7566C101.829 59.8582 101.477 60.0346 101.171 60.2753C100.865 60.5161 100.61 60.8162 100.422 61.1579C100.234 61.4996 100.116 61.8758 100.076 62.2641C100.036 62.6524 100.074 63.0449 100.188 63.4182L101.115 66.5309L94.8563 62.9236C94.5252 62.7326 94.1599 62.6089 93.7813 62.5597C93.4026 62.5104 93.018 62.5365 92.6494 62.6364C92.2808 62.7364 91.9354 62.9082 91.633 63.1422C91.3305 63.3762 91.0769 63.6676 90.8867 64C90.6964 64.3324 90.5732 64.6991 90.5241 65.0793C90.475 65.4594 90.501 65.8456 90.6006 66.2157C90.8016 66.9631 91.2902 67.5997 91.9587 67.9855L97.7538 71.2727L95.3199 72.0291C94.5514 72.1294 93.8541 72.5321 93.3813 73.1486C92.9086 73.765 92.6991 74.5448 92.799 75.3164C92.8989 76.0879 93.3 76.788 93.914 77.2626C94.5281 77.7373 95.3047 77.9476 96.0732 77.8473H96.8266L104.998 75.6364L112.705 80L104.853 84.5673L96.6817 82.3564C96.2983 82.2134 95.8891 82.1536 95.481 82.1808C95.073 82.208 94.6752 82.3217 94.3141 82.5143C93.9529 82.7068 93.6364 82.974 93.3854 83.2982C93.1344 83.6224 92.9546 83.9963 92.8578 84.3952C92.7611 84.7941 92.7495 85.2091 92.8239 85.6129C92.8984 86.0166 93.0571 86.4 93.2896 86.7378C93.5222 87.0755 93.8233 87.36 94.1732 87.5726C94.5232 87.7851 94.9139 87.9209 95.3199 87.9709L97.8986 88.6691L92.1036 92.0145C91.435 92.4003 90.9465 93.0369 90.7454 93.7844C90.5444 94.5318 90.6473 95.3288 91.0315 96C91.4158 96.6712 92.0499 97.1617 92.7943 97.3636C93.5387 97.5655 94.3326 97.4621 95.0011 97.0764L101.115 93.4691L100.246 96.6982C100.131 97.0706 100.092 97.4623 100.131 97.8502C100.169 98.2381 100.286 98.6141 100.472 98.956C100.659 99.2979 100.912 99.5987 101.216 99.8405C101.521 100.082 101.871 100.26 102.245 100.364C102.495 100.392 102.748 100.392 102.998 100.364C103.652 100.386 104.295 100.186 104.821 99.7947C105.347 99.4038 105.726 98.8456 105.896 98.2109L108.272 89.4836L115.602 85.0327V94.1382L109.605 100.16C109.065 100.705 108.762 101.442 108.762 102.211C108.762 102.979 109.065 103.717 109.605 104.262C109.873 104.537 110.193 104.755 110.546 104.905C110.899 105.055 111.278 105.133 111.662 105.135C112.045 105.133 112.424 105.055 112.778 104.905C113.131 104.755 113.451 104.537 113.719 104.262L115.602 102.371V109.091C115.602 109.862 115.908 110.602 116.451 111.148C116.995 111.694 117.732 112 118.5 112C119.268 112 120.005 111.694 120.549 111.148C121.092 110.602 121.398 109.862 121.398 109.091V101.905L123.745 104.262C124.014 104.534 124.334 104.751 124.687 104.899C125.041 105.046 125.419 105.122 125.802 105.122C126.184 105.122 126.563 105.046 126.916 104.899C127.269 104.751 127.59 104.534 127.859 104.262C128.399 103.717 128.702 102.979 128.702 102.211C128.702 101.442 128.399 100.705 127.859 100.16L121.398 93.6727V84.9455L128.844 89.28L131.22 98.0073C131.39 98.6419 131.769 99.2002 132.295 99.5911C132.821 99.982 133.463 100.182 134.118 100.16C134.368 100.189 134.621 100.189 134.871 100.16C135.241 100.062 135.588 99.8917 135.892 99.6585C136.196 99.4253 136.451 99.1339 136.642 98.8013C136.833 98.4686 136.957 98.1012 137.006 97.7203C137.055 97.3393 137.029 96.9524 136.928 96.5818L135.885 93.4691L142.086 97.0764C142.417 97.2674 142.782 97.3911 143.161 97.4403C143.539 97.4896 143.924 97.4635 144.293 97.3636C144.661 97.2636 145.007 97.0918 145.309 96.8578C145.612 96.6239 145.865 96.3324 146.055 96C146.246 95.6676 146.369 95.3009 146.418 94.9207C146.467 94.5406 146.441 94.1544 146.341 93.7844C146.242 93.4143 146.071 93.0675 145.838 92.7638C145.605 92.4602 145.314 92.2056 144.983 92.0145H145.041Z"/>
</mask>
<path d="M145.041 92.0145L139.246 88.6691L141.825 87.9709C142.204 87.8823 142.561 87.7181 142.875 87.488C143.189 87.258 143.454 86.9668 143.654 86.6318C143.853 86.2968 143.984 85.9248 144.037 85.5381C144.091 85.1514 144.066 84.7579 143.965 84.3809C143.864 84.0039 143.688 83.6512 143.449 83.3439C143.209 83.0365 142.91 82.7808 142.57 82.5918C142.229 82.4029 141.855 82.2847 141.468 82.2443C141.081 82.2038 140.69 82.2419 140.318 82.3564L132.147 84.5673L124.295 80L132.147 75.4327L140.318 77.6436H141.072C141.84 77.7439 142.617 77.5336 143.231 77.059C143.845 76.5844 144.246 75.8843 144.346 75.1127C144.446 74.3412 144.236 73.5614 143.764 72.9449C143.291 72.3284 142.593 71.9258 141.825 71.8255L139.246 71.2727L145.041 67.9273C145.372 67.7363 145.663 67.4817 145.896 67.178C146.129 66.8743 146.3 66.5276 146.399 66.1575C146.499 65.7874 146.525 65.4012 146.476 65.0211C146.427 64.6409 146.304 64.2742 146.113 63.9418C145.923 63.6095 145.669 63.318 145.367 63.084C145.065 62.85 144.719 62.6782 144.351 62.5782C143.982 62.4783 143.597 62.4522 143.219 62.5015C142.84 62.5508 142.475 62.6744 142.144 62.8655L135.885 66.5309L136.754 63.3018C136.868 62.9285 136.906 62.5361 136.866 62.1477C136.826 61.7594 136.708 61.3832 136.52 61.0415C136.332 60.6999 136.077 60.3997 135.771 60.159C135.465 59.9182 135.113 59.7418 134.738 59.6402C134.362 59.5387 133.97 59.514 133.585 59.5678C133.2 59.6215 132.83 59.7525 132.496 59.9531C132.162 60.1536 131.872 60.4195 131.643 60.7349C131.414 61.0503 131.25 61.4089 131.162 61.7891L128.786 70.5164L121.398 74.9673V65.8618L127.395 59.84C127.935 59.2949 128.238 58.5576 128.238 57.7891C128.238 57.0205 127.935 56.2832 127.395 55.7382C127.126 55.4655 126.806 55.2491 126.452 55.1014C126.099 54.9537 125.721 54.8777 125.338 54.8777C124.956 54.8777 124.577 54.9537 124.224 55.1014C123.871 55.2491 123.55 55.4655 123.281 55.7382L121.398 57.6291V50.9091C121.398 50.1376 121.092 49.3976 120.549 48.8521C120.005 48.3065 119.268 48 118.5 48C117.732 48 116.995 48.3065 116.451 48.8521C115.908 49.3976 115.602 50.1376 115.602 50.9091V58.0945L113.255 55.7382C112.986 55.4655 112.666 55.2491 112.313 55.1014C111.959 54.9537 111.581 54.8777 111.198 54.8777C110.816 54.8777 110.437 54.9537 110.084 55.1014C109.731 55.2491 109.41 55.4655 109.141 55.7382C108.601 56.2832 108.298 57.0205 108.298 57.7891C108.298 58.5576 108.601 59.2949 109.141 59.84L115.602 66.3273V75.0545L108.156 70.6327L105.78 61.9055C105.692 61.5252 105.528 61.1667 105.299 60.8513C105.07 60.5358 104.78 60.2699 104.446 60.0694C104.112 59.8689 103.742 59.7379 103.357 59.6841C102.972 59.6304 102.58 59.655 102.204 59.7566C101.829 59.8582 101.477 60.0346 101.171 60.2753C100.865 60.5161 100.61 60.8162 100.422 61.1579C100.234 61.4996 100.116 61.8758 100.076 62.2641C100.036 62.6524 100.074 63.0449 100.188 63.4182L101.115 66.5309L94.8563 62.9236C94.5252 62.7326 94.1599 62.6089 93.7813 62.5597C93.4026 62.5104 93.018 62.5365 92.6494 62.6364C92.2808 62.7364 91.9354 62.9082 91.633 63.1422C91.3305 63.3762 91.0769 63.6676 90.8867 64C90.6964 64.3324 90.5732 64.6991 90.5241 65.0793C90.475 65.4594 90.501 65.8456 90.6006 66.2157C90.8016 66.9631 91.2902 67.5997 91.9587 67.9855L97.7538 71.2727L95.3199 72.0291C94.5514 72.1294 93.8541 72.5321 93.3813 73.1486C92.9086 73.765 92.6991 74.5448 92.799 75.3164C92.8989 76.0879 93.3 76.788 93.914 77.2626C94.5281 77.7373 95.3047 77.9476 96.0732 77.8473H96.8266L104.998 75.6364L112.705 80L104.853 84.5673L96.6817 82.3564C96.2983 82.2134 95.8891 82.1536 95.481 82.1808C95.073 82.208 94.6752 82.3217 94.3141 82.5143C93.9529 82.7068 93.6364 82.974 93.3854 83.2982C93.1344 83.6224 92.9546 83.9963 92.8578 84.3952C92.7611 84.7941 92.7495 85.2091 92.8239 85.6129C92.8984 86.0166 93.0571 86.4 93.2896 86.7378C93.5222 87.0755 93.8233 87.36 94.1732 87.5726C94.5232 87.7851 94.9139 87.9209 95.3199 87.9709L97.8986 88.6691L92.1036 92.0145C91.435 92.4003 90.9465 93.0369 90.7454 93.7844C90.5444 94.5318 90.6473 95.3288 91.0315 96C91.4158 96.6712 92.0499 97.1617 92.7943 97.3636C93.5387 97.5655 94.3326 97.4621 95.0011 97.0764L101.115 93.4691L100.246 96.6982C100.131 97.0706 100.092 97.4623 100.131 97.8502C100.169 98.2381 100.286 98.6141 100.472 98.956C100.659 99.2979 100.912 99.5987 101.216 99.8405C101.521 100.082 101.871 100.26 102.245 100.364C102.495 100.392 102.748 100.392 102.998 100.364C103.652 100.386 104.295 100.186 104.821 99.7947C105.347 99.4038 105.726 98.8456 105.896 98.2109L108.272 89.4836L115.602 85.0327V94.1382L109.605 100.16C109.065 100.705 108.762 101.442 108.762 102.211C108.762 102.979 109.065 103.717 109.605 104.262C109.873 104.537 110.193 104.755 110.546 104.905C110.899 105.055 111.278 105.133 111.662 105.135C112.045 105.133 112.424 105.055 112.778 104.905C113.131 104.755 113.451 104.537 113.719 104.262L115.602 102.371V109.091C115.602 109.862 115.908 110.602 116.451 111.148C116.995 111.694 117.732 112 118.5 112C119.268 112 120.005 111.694 120.549 111.148C121.092 110.602 121.398 109.862 121.398 109.091V101.905L123.745 104.262C124.014 104.534 124.334 104.751 124.687 104.899C125.041 105.046 125.419 105.122 125.802 105.122C126.184 105.122 126.563 105.046 126.916 104.899C127.269 104.751 127.59 104.534 127.859 104.262C128.399 103.717 128.702 102.979 128.702 102.211C128.702 101.442 128.399 100.705 127.859 100.16L121.398 93.6727V84.9455L128.844 89.28L131.22 98.0073C131.39 98.6419 131.769 99.2002 132.295 99.5911C132.821 99.982 133.463 100.182 134.118 100.16C134.368 100.189 134.621 100.189 134.871 100.16C135.241 100.062 135.588 99.8917 135.892 99.6585C136.196 99.4253 136.451 99.1339 136.642 98.8013C136.833 98.4686 136.957 98.1012 137.006 97.7203C137.055 97.3393 137.029 96.9524 136.928 96.5818L135.885 93.4691L142.086 97.0764C142.417 97.2674 142.782 97.3911 143.161 97.4403C143.539 97.4896 143.924 97.4635 144.293 97.3636C144.661 97.2636 145.007 97.0918 145.309 96.8578C145.612 96.6239 145.865 96.3324 146.055 96C146.246 95.6676 146.369 95.3009 146.418 94.9207C146.467 94.5406 146.441 94.1544 146.341 93.7844C146.242 93.4143 146.071 93.0675 145.838 92.7638C145.605 92.4602 145.314 92.2056 144.983 92.0145H145.041Z" fill="white" stroke="#B1B1B1" stroke-width="4" mask="url(#path-6-inside-1_6120_570)"/>
</g>
</g>
</svg>
