<svg width="153" height="160" viewBox="0 0 153 160" fill="none" xmlns="http://www.w3.org/2000/svg">
<g id="icon_dryer">
<g id="Group 1000002277">
<rect id="Rectangle 34" x="16" y="1.5" width="121" height="157" rx="10.5755" fill="#E0E9F0" stroke="#B1B1B1" stroke-width="3"/>
<path id="Ellipse 83" d="M116.448 87.5472C116.448 109.533 98.8144 127.311 77.1165 127.311C55.4186 127.311 37.7852 109.533 37.7852 87.5472C37.7852 65.5617 55.4186 47.783 77.1165 47.783C98.8144 47.783 116.448 65.5617 116.448 87.5472Z" fill="white" stroke="#B1B1B1" stroke-width="5"/>
<path id="Vector 2" d="M80.0939 84C78.3663 82.8 75.0551 83.5 73.6154 84C70.7361 80.75 64.9775 73.35 64.9775 69.75C64.9775 65.25 70.0163 60 77.2146 60C84.4128 60 88.7318 64.5 88.7318 69.75C88.7318 73.95 82.9732 81 80.0939 84Z" fill="#083475"/>
<path id="Vector 3" d="M79.0449 93.2266C80.9373 92.315 81.9929 89.0677 82.2841 87.558C86.5095 86.6637 95.7318 85.325 98.8175 87.125C102.675 89.375 104.655 96.4089 101.056 102.707C97.4572 109.006 91.4405 110.535 86.9404 107.91C83.3404 105.81 80.1767 97.2459 79.0449 93.2266Z" fill="#083475"/>
<path id="Vector 4" d="M72.0527 87.7734C71.8879 89.885 74.1435 92.4323 75.2919 93.442C73.9458 97.5863 70.4821 106.325 67.3963 108.125C63.5391 110.375 56.5197 108.591 52.9206 102.293C49.3214 95.9944 51.0192 89.9654 55.5192 87.3404C59.1193 85.2404 68.0415 86.7541 72.0527 87.7734Z" fill="#083475"/>
<rect id="Rectangle 31" x="26.3877" y="26.1698" width="4.03774" height="101.084" rx="2.01887" transform="rotate(-90 26.3877 26.1698)" stroke="#B1B1B1" stroke-width="2"/>
<rect id="Rectangle 32" x="26.8164" y="16" width="6" height="9.87711" rx="3" transform="rotate(-90 26.8164 16)" stroke="#B1B1B1" stroke-width="2"/>
<rect id="Rectangle 33" x="41.7568" y="16" width="6" height="9.87711" rx="3" transform="rotate(-90 41.7568 16)" stroke="#B1B1B1" stroke-width="2"/>
<path id="Ellipse 80" d="M107.004 13C107.004 14.6666 105.67 16 104.045 16C102.42 16 101.086 14.6666 101.086 13C101.086 11.3334 102.42 10 104.045 10C105.67 10 107.004 11.3334 107.004 13Z" stroke="#B1B1B1" stroke-width="2"/>
<path id="Ellipse 81" d="M116.864 13C116.864 14.6666 115.53 16 113.905 16C112.281 16 110.946 14.6666 110.946 13C110.946 11.3334 112.281 10 113.905 10C115.53 10 116.864 11.3334 116.864 13Z" stroke="#B1B1B1" stroke-width="2"/>
<path id="Ellipse 82" d="M126.762 13C126.762 14.6666 125.427 16 123.803 16C122.178 16 120.844 14.6666 120.844 13C120.844 11.3334 122.178 10 123.803 10C125.427 10 126.762 11.3334 126.762 13Z" stroke="#B1B1B1" stroke-width="2"/>
</g>
</g>
</svg>
