<svg width="153" height="162" viewBox="0 0 153 162" fill="none" xmlns="http://www.w3.org/2000/svg">
<path d="M33.0255 124.102H121.148V145.944C120.897 147.953 119.19 152.12 114.37 152.723C109.549 153.326 61.6465 152.974 38.2978 152.723C35.8 152.696 33.0255 149.56 33.0255 145.944V124.102Z" fill="#E0E9F0"/>
<path d="M33.0255 40.4983H121.148V118.83H33.0255V40.4983Z" fill="#E0E9F0"/>
<path fill-rule="evenodd" clip-rule="evenodd" d="M57.8806 157.242H95.5399V161.008H106.084V157.242H116.629C120.395 157.242 125.065 153.777 125.667 145.944C126.27 138.111 125.918 52.8004 125.667 11.1241C125.416 8.11137 123.257 1.93525 116.629 1.3327C110.001 0.73015 60.6423 1.08164 36.7914 1.3327C33.0255 1.37234 27 4.49605 27 11.1241V145.944C27 149.71 30.1634 157.242 36.7914 157.242H46.5828V161.008H57.8806V157.242ZM121.148 35.226H33.0255V11.1241C33.0255 7.60373 36.0382 5.09863 39.8042 5.09863H114.37C118.889 5.09863 121.148 9.61778 121.148 14.1369V35.226ZM121.148 40.4983H33.0255V118.83H121.148V40.4983ZM121.148 124.102H33.0255V145.944C33.0255 149.56 35.8 152.696 38.2978 152.723C61.6465 152.974 109.549 153.326 114.37 152.723C119.19 152.12 120.897 147.953 121.148 145.944V124.102Z" fill="white"/>
<path d="M33.0255 35.226H121.148V14.1369C121.148 9.61778 118.889 5.09863 114.37 5.09863H39.8042C36.0382 5.09863 33.0255 7.60373 33.0255 11.1241M33.0255 35.226C33.0255 28.1963 33.0255 13.5343 33.0255 11.1241M33.0255 35.226V11.1241M33.0255 124.102H121.148V145.944C120.897 147.953 119.19 152.12 114.37 152.723C109.549 153.326 61.6465 152.974 38.2978 152.723C35.8 152.696 33.0255 149.56 33.0255 145.944M33.0255 124.102C33.0255 129.876 33.0255 142.329 33.0255 145.944M33.0255 124.102V145.944M27 11.1241C27 4.49605 33.0255 1.37234 36.7914 1.3327C60.6423 1.08164 110.001 0.73015 116.629 1.3327C123.257 1.93525 125.416 8.11137 125.667 11.1241C125.918 52.8004 126.27 138.111 125.667 145.944C125.065 153.777 120.395 157.242 116.629 157.242H106.084V161.008H95.5399V157.242H57.8806V161.008H46.5828V157.242M27 11.1241C27 17.7522 27 103.766 27 145.944M27 11.1241V145.944M27 145.944C27 149.71 30.1634 157.242 36.7914 157.242M36.7914 157.242C43.4194 157.242 46.0807 157.242 46.5828 157.242M36.7914 157.242H46.5828M33.0255 40.4983H121.148V118.83H33.0255V40.4983Z" stroke="#B1B1B1" stroke-width="2"/>
<rect x="38.2979" y="69.1194" width="6" height="20" rx="3" fill="#083475"/>
<rect x="42.5696" y="134.647" width="4.49363" height="68.4936" rx="2.24681" transform="rotate(-90 42.5696 134.647)" stroke="#B1B1B1" stroke-width="1.50637"/>
<rect x="42.5696" y="145.191" width="4.49363" height="68.4936" rx="2.24681" transform="rotate(-90 42.5696 145.191)" stroke="#B1B1B1" stroke-width="1.50637"/>
</svg>
