<svg width="153" height="160" viewBox="0 0 153 160" fill="none" xmlns="http://www.w3.org/2000/svg">
<g id="icon_oven&#38;stove">
<g id="Group 1000002274">
<rect id="Rectangle 44" x="28.9805" y="152.043" width="12.5803" height="6.10015" fill="#F1F1F1" stroke="#B1B1B1" stroke-width="2"/>
<rect id="Rectangle 45" x="108.361" y="152.043" width="12.5803" height="6.10015" fill="#F1F1F1" stroke="#B1B1B1" stroke-width="2"/>
<g id="Vector 7">
<path d="M96.8314 6.05007C95.5353 6.05007 95.2113 8.21011 95.2113 9.29013H110.602C110.602 7.3461 109.522 6.32008 108.982 6.05007H96.8314Z" fill="#F1F1F1"/>
<path d="M129.232 153.473V9.29013H116.272H110.602H95.2113H89.5412H62.0007H56.3306H40.9404H33.6502H21.5L22.31 153.473H129.232Z" fill="#E0E9F0"/>
<path d="M42.5604 6.05007C41.2644 6.05007 40.9404 8.21011 40.9404 9.29013H56.3306C56.3306 7.3461 55.2506 6.32008 54.7106 6.05007H42.5604Z" fill="#F1F1F1"/>
<path d="M40.9404 9.29013C40.9404 8.21011 41.2644 6.05007 42.5604 6.05007M40.9404 9.29013H56.3306M40.9404 9.29013H33.6502M42.5604 6.05007C43.8564 6.05007 51.2005 6.05007 54.7106 6.05007M42.5604 6.05007H54.7106M54.7106 6.05007C55.2506 6.32008 56.3306 7.3461 56.3306 9.29013M56.3306 9.29013H62.0007M95.2113 9.29013C95.2113 8.21011 95.5353 6.05007 96.8314 6.05007M95.2113 9.29013H110.602M95.2113 9.29013H89.5412M96.8314 6.05007C98.1274 6.05007 105.472 6.05007 108.982 6.05007M96.8314 6.05007H108.982M108.982 6.05007C109.522 6.32008 110.602 7.3461 110.602 9.29013M110.602 9.29013H116.272M53.0906 53.8409C53.3606 52.4909 54.7106 49.7909 57.9507 49.7909C61.1907 49.7909 83.6011 49.7909 94.4013 49.7909C95.7514 50.0609 98.4514 51.2489 98.4514 53.8409M40.9404 2H36.8903C35.8103 3.35002 33.6502 6.69809 33.6502 9.29013M33.6502 9.29013H21.5L22.31 153.473H129.232V9.29013H116.272M54.7106 2H58.7607C59.8407 2.81001 62.0007 5.40206 62.0007 9.29013M62.0007 9.29013H89.5412M96.8314 2H91.9713C90.8913 3.35002 88.8932 6.69809 89.5412 9.29013M110.602 2H113.842C114.652 2.81001 116.272 5.40206 116.272 9.29013" stroke="#B1B1B1" stroke-width="2"/>
</g>
<circle id="Ellipse 86" cx="36.2197" cy="23.2004" r="4.18999" fill="#083475" stroke="#B1B1B1" stroke-width="1.62003"/>
<circle id="Ellipse 87" cx="54.041" cy="23.2004" r="4.18999" fill="#083475" stroke="#B1B1B1" stroke-width="1.62003"/>
<circle id="Ellipse 88" cx="73.4805" cy="23.2004" r="4.18999" fill="#083475" stroke="#B1B1B1" stroke-width="1.62003"/>
<circle id="Ellipse 89" cx="92.9209" cy="23.2004" r="4.18999" fill="#083475" stroke="#B1B1B1" stroke-width="1.62003"/>
<rect id="Rectangle 46" x="106.723" y="19.1825" width="14.0357" height="8.03571" stroke="#B1B1B1" stroke-width="1.96429"/>
<line id="Line 4" x1="21.5" y1="36.6406" x2="130.042" y2="36.6406" stroke="#B1B1B1" stroke-width="2"/>
<line id="Line 5" x1="21.5" y1="130.129" x2="130.042" y2="130.129" stroke="#B1B1B1" stroke-width="2.94643"/>
<rect id="Rectangle 47" x="37.0622" y="66.1633" width="77.4172" height="49.8767" fill="white" stroke="#B1B1B1" stroke-width="1.96429"/>
<circle id="Ellipse 92" cx="106.741" cy="31" r="1" fill="#B1B1B1"/>
<circle id="Ellipse 93" cx="109.981" cy="31" r="1" fill="#B1B1B1"/>
<circle id="Ellipse 94" cx="120.5" cy="31" r="1" fill="#B1B1B1"/>
</g>
</g>
</svg>
