<svg width="153" height="160" viewBox="0 0 153 160" fill="none" xmlns="http://www.w3.org/2000/svg">
<g id="icon_range_hood">
<g id="Group 1000002280">
<g id="Vector 13">
<path d="M138.5 86.2271L93.5926 38.8463H57.7676L14.5 86.2271H138.5Z" fill="#E0E9F0"/>
<path d="M93.5926 4H57.7676V38.8463H93.5926V4Z" fill="#E0E9F0"/>
<path d="M138.5 106.909V86.2271H14.5V106.909H26.736H126.264H138.5Z" fill="white"/>
<path d="M93.5926 38.8463V4H57.7676V38.8463M93.5926 38.8463L138.5 86.2271M93.5926 38.8463H57.7676M138.5 86.2271V106.909H126.264M138.5 86.2271H14.5M14.5 86.2271V106.909H26.736M14.5 86.2271L57.7676 38.8463M26.736 106.909C28.1656 111.046 32.5891 119.394 38.8459 119.695C45.1026 119.995 90.5651 119.82 112.514 119.695C117.097 119.402 126.264 116.436 126.264 106.909M26.736 106.909H126.264" stroke="#B1B1B1" stroke-width="3"/>
</g>
<circle id="Ellipse 98" cx="24.8076" cy="95.9958" r="4" stroke="#B1B1B1" stroke-width="2"/>
<circle id="Ellipse 99" cx="36.124" cy="95.9958" r="4" stroke="#B1B1B1" stroke-width="2"/>
<circle id="Ellipse 100" cx="47.4404" cy="96" r="4" stroke="#B1B1B1" stroke-width="2"/>
<rect id="Rectangle 61" x="60" y="92" width="32" height="8" rx="2.80443" fill="#083475"/>
<rect id="Rectangle 62" x="82.8701" y="21.0471" width="12.5346" height="4.5412" rx="2.2706" transform="rotate(-90 82.8701 21.0471)" stroke="#B1B1B1" stroke-width="2"/>
<rect id="Rectangle 63" x="82.8701" y="35.0859" width="9.27562" height="4.5412" rx="2.2706" transform="rotate(-90 82.8701 35.0859)" stroke="#B1B1B1" stroke-width="2"/>
<rect id="Rectangle 64" width="14.0719" height="4.52786" rx="2.26393" transform="matrix(-0.684311 -0.72919 0.733509 -0.67968 119.112 81.6528)" stroke="#B1B1B1" stroke-width="2"/>
<rect id="Rectangle 65" width="29.1483" height="4.52786" rx="2.26393" transform="matrix(-0.684311 -0.72919 0.733509 -0.67968 106.342 68.0134)" stroke="#B1B1B1" stroke-width="2"/>
<path id="Arrow 6" d="M54.4678 124.243L48.6943 134.243L60.2413 134.243L54.4678 124.243ZM55.4678 152.849L55.4678 133.243L53.4678 133.243L53.4678 152.849L55.4678 152.849Z" fill="#E0E9F0"/>
<path id="Arrow 7" d="M76.0586 124.243L70.2851 134.243L81.8321 134.243L76.0586 124.243ZM77.0586 160L77.0586 133.243L75.0586 133.243L75.0586 160L77.0586 160Z" fill="#E0E9F0"/>
<path id="Arrow 8" d="M97.6484 124.243L91.8749 134.243L103.422 134.243L97.6484 124.243ZM98.6484 152.849L98.6484 133.243L96.6484 133.243L96.6484 152.849L98.6484 152.849Z" fill="#E0E9F0"/>
</g>
</g>
</svg>
