<svg width="56" height="56" viewBox="0 0 56 56" fill="none" xmlns="http://www.w3.org/2000/svg">
<path d="M12.6966 16.6209L10.6494 18.6681L4.67165 8.35032L8.68413 4.17407L19.0019 10.3156L16.9548 12.3628M12.6966 16.6209L22.8506 26.9387M12.6966 16.6209L16.9548 12.3628M22.8506 26.9387L15.7264 34.3905C10.6494 32.9984 0.986763 36.5195 4.91732 47.2468L8.4385 43.3162L12.6966 42.9886L13.188 47.2468L9.25738 51.423C18.9201 54.2891 23.7514 46.1331 22.1137 40.6958L29.3198 33.3616M22.8506 26.9387L27.1907 22.41M16.9548 12.3628L27.1907 22.41M27.1907 22.41L34.1511 15.147C33.0866 4.17407 43.2406 2.61821 47.0074 4.91106L43.2406 8.35032V12.8541H47.7444L51.4293 9.49674C54.0497 21.0265 45.2605 22.5987 40.5383 21.9436L33.6598 28.904M35.8707 35.5369L46.1066 45.8547M33.6598 28.904C34.4786 28.7024 37.0008 28.2162 38.573 29.7229C40.1452 31.2296 47.4714 38.867 50.938 42.4973C51.8387 44.0532 53.0015 47.8363 50.4467 50.5223C47.8918 53.2082 44.0322 51.9689 42.4217 51.0136L30.4662 39.3037C29.7019 38.5359 28.4026 36.2726 29.3198 33.3616M33.6598 28.904L29.3198 33.3616" stroke="#083475" stroke-width="3"/>
</svg>
