<svg width="56" height="56" viewBox="0 0 56 56" fill="none" xmlns="http://www.w3.org/2000/svg">
<path d="M23.1309 7.45639L23.1307 7.45815L22.7313 10.9014L22.7311 10.9026C22.6459 11.6321 22.3841 12.3282 21.971 12.9354C21.5581 13.5422 21.0067 14.0419 20.3651 14.3987C19.7237 14.7555 19.0078 14.961 18.2747 15.0018C17.5416 15.0427 16.8072 14.9181 16.1295 14.6361L16.1229 14.6333L16.123 14.6333L12.8331 13.2456L12.8318 13.2451C12.7746 13.2209 12.7072 13.2133 12.6415 13.2262C12.5761 13.2391 12.5256 13.2695 12.493 13.3029L12.4927 13.3033C10.2733 15.5798 8.62421 18.3053 7.66467 21.2729C7.65582 21.3004 7.65601 21.3281 7.66551 21.3558C7.67531 21.3844 7.69789 21.4202 7.74169 21.4511L10.6606 23.512C10.661 23.5124 10.6614 23.5127 10.6619 23.513C11.2623 23.9359 11.7563 24.4926 12.0991 25.142C12.4423 25.7922 12.6229 26.5146 12.6229 27.25C12.6229 27.9854 12.4423 28.7078 12.0991 29.3581C11.7563 30.0073 11.2625 30.564 10.6623 30.9868C10.6617 30.9872 10.6611 30.9876 10.6606 30.9881L7.74269 33.0528L7.74169 33.0535C7.69789 33.0844 7.67531 33.1202 7.66551 33.1488C7.65601 33.1765 7.65582 33.2042 7.66467 33.2317L7.66482 33.2322C8.62182 36.2027 10.2695 38.9315 12.4887 41.2111L12.4897 41.2121C12.5222 41.2456 12.5727 41.276 12.638 41.289C12.7037 41.3019 12.7711 41.2944 12.8284 41.2703L12.8297 41.2697L16.1337 39.8797L16.1365 39.8786C16.8118 39.5961 17.544 39.4705 18.2752 39.51L18.1945 41.0078L18.2752 39.51C19.0065 39.5494 19.7208 39.753 20.3612 40.1075C21.0018 40.4622 21.5527 40.9595 21.9658 41.5638C22.3791 42.1685 22.6418 42.8622 22.7284 43.5896L22.729 43.5949L23.1261 47.0337C23.1291 47.0593 23.1409 47.0917 23.1708 47.1241C23.2015 47.1574 23.2499 47.1887 23.3139 47.2033L23.3149 47.2035C26.4981 47.9322 29.8159 47.9322 32.9992 47.2035C33.0626 47.1887 33.1106 47.1576 33.1409 47.1245C33.1707 47.0921 33.1826 47.0598 33.1855 47.0342L33.1857 47.0329L33.5848 43.5929C33.5848 43.5925 33.5849 43.5922 33.5849 43.5918C33.6681 42.8621 33.9286 42.1655 34.341 41.558C34.7533 40.9505 35.3049 40.4504 35.9469 40.0938C36.5887 39.7374 37.3052 39.5329 38.0387 39.4937C38.7721 39.4545 39.5064 39.5815 40.1831 39.8664L40.1835 39.8666L43.4866 41.2584C43.5439 41.2825 43.6112 41.2899 43.6768 41.277C43.7421 41.264 43.7925 41.2336 43.825 41.2002L43.8258 41.1993C46.0445 38.9225 47.6928 36.197 48.6517 33.2294C48.6606 33.202 48.6604 33.1742 48.6509 33.1465C48.6411 33.1179 48.6185 33.0822 48.5747 33.0512L48.5743 33.051L45.6558 30.9881C45.6556 30.9879 45.6554 30.9878 45.6552 30.9876C45.0545 30.5647 44.5603 30.0077 44.2173 29.358C43.8741 28.7079 43.6935 27.9854 43.6935 27.25C43.6935 26.5146 43.8741 25.7922 44.2174 25.142C44.5601 24.4928 45.0539 23.9361 45.6541 23.5133C45.6547 23.5128 45.6553 23.5124 45.6558 23.512L48.5681 21.448L48.5695 21.447C48.6132 21.4161 48.6358 21.3803 48.6456 21.3518C48.655 21.3243 48.6553 21.2968 48.6467 21.2697C47.6871 18.3024 46.0382 15.5773 43.819 13.301L43.8187 13.3007C43.7861 13.2672 43.7356 13.2368 43.6702 13.224C43.6045 13.211 43.5371 13.2186 43.4799 13.2428L43.4786 13.2434L40.1888 14.6311L40.1833 14.6334C39.5064 14.9158 38.7725 15.0407 38.0399 15.0002C37.3073 14.9597 36.5918 14.7546 35.9508 14.3981C35.3096 14.0416 34.7586 13.5421 34.3462 12.9356C33.9335 12.3288 33.6722 11.633 33.5875 10.9038L33.5875 10.9036L33.188 7.45804C33.185 7.43219 33.1729 7.39933 33.1423 7.36652C33.1108 7.33288 33.0613 7.30157 32.9961 7.28758L23.1309 7.45639ZM23.1309 7.45639C23.1339 7.4305 23.146 7.39757 23.1767 7.3647C23.2081 7.33105 23.2577 7.29975 23.3229 7.28577L23.1309 7.45639ZM28.184 6.7501C29.8024 6.76816 31.4144 6.94867 32.996 7.28756L28.184 6.7501ZM28.184 6.7501C26.5208 6.77101 24.9011 6.94998 23.3233 7.28568L28.184 6.7501Z" stroke="#083475" stroke-width="3"/>
<path d="M25.156 31.5078L35.0211 19.4276C35.2539 19.1425 35.5256 19 35.836 19C36.1464 19 36.418 19.1425 36.6508 19.4276C36.8836 19.7127 37 20.0515 37 20.4439C37 20.8364 36.8836 21.1747 36.6508 21.4588L25.9708 34.5724C25.738 34.8575 25.4664 35 25.156 35C24.8455 35 24.5739 34.8575 24.3411 34.5724L19.3358 28.4432C19.103 28.1581 18.9912 27.8198 19.0005 27.4283C19.0098 27.0368 19.1313 26.6981 19.3649 26.412C19.5985 26.126 19.8751 25.9835 20.1948 25.9844C20.5146 25.9854 20.7908 26.1279 21.0236 26.412L25.156 31.5078Z" fill="#083475"/>
</svg>
