<svg width="32" height="32" viewBox="0 0 32 32" fill="none" xmlns="http://www.w3.org/2000/svg">
<path d="M15.6667 21.3333C14.9594 21.3333 14.2811 20.9936 13.781 20.3888C13.2809 19.784 13 18.9638 13 18.1085V3.22481C13 2.36954 13.2809 1.54929 13.781 0.944524C14.2811 0.339755 14.9594 0 15.6667 0C16.3739 0 17.0522 0.339755 17.5523 0.944524C18.0524 1.54929 18.3333 2.36954 18.3333 3.22481V18.1085C18.3333 18.9638 18.0524 19.784 17.5523 20.3888C17.0522 20.9936 16.3739 21.3333 15.6667 21.3333Z" fill="#AD0808"/>
<path d="M15.6667 32C17.1394 32 18.3333 30.8061 18.3333 29.3334C18.3333 27.8606 17.1394 26.6667 15.6667 26.6667C14.1939 26.6667 13 27.8606 13 29.3334C13 30.8061 14.1939 32 15.6667 32Z" fill="#AD0808"/>
</svg>
