<svg width="56" height="56" viewBox="0 0 56 56" fill="none" xmlns="http://www.w3.org/2000/svg">
<path d="M17.198 9.41352V16.2433L19.5054 21.3194V18.1814C22.0896 16.3356 29.1039 13.7513 36.4874 18.1814V21.3194L38.8871 16.2433C38.888 16.2418 38.889 16.2403 38.89 16.2388C38.9193 16.1498 38.9376 14.699 38.7948 9.41352C38.6471 3.94972 33.7494 2.27613 31.319 2.1223C31.1651 2.03001 29.51 1.9008 24.1201 2.1223C18.7301 2.34381 17.2595 7.07541 17.198 9.41352Z" fill="#083475"/>
<path d="M15.5367 36.1066V44.0237H13.7831V52.9403L42.1173 53.1038V44.0237H40.5484V36.1048C38.9163 35.3612 37.2623 34.6151 35.8414 33.978V44.0237H20.336L20.3023 33.978C18.9027 34.5934 17.2211 35.3417 15.5367 36.1066Z" fill="#083475"/>
<path d="M21.8127 33.3176C22.2126 35.3788 23.9724 39.4828 27.8118 39.409C32.6111 39.3167 34.0878 34.5174 34.3647 33.3176M21.8127 33.3176C21.3648 33.5122 20.8556 33.7347 20.3023 33.978M21.8127 33.3176L21.7394 30.4037M34.3647 33.3176C34.8158 33.5188 35.3125 33.7409 35.8414 33.978M34.3647 33.3176L34.457 30.2719M15.5367 36.1066C12.3067 37.5733 9.06617 39.1012 7.78405 39.8705C5.56899 41.1995 4.33841 49.0999 4 52.8839L13.7831 52.9403M15.5367 36.1066V44.0237H13.7831V52.9403M15.5367 36.1066C17.2211 35.3417 18.9027 34.5934 20.3023 33.978M13.7831 52.9403L42.1173 53.1038M42.1173 53.1038L51.9928 53.1608C52.1774 45.9619 48.7625 40.3319 48.3933 39.8705C48.2059 39.6362 44.4394 37.8775 40.5484 36.1048M42.1173 53.1038V44.0237H40.5484V36.1048M40.5484 36.1048C38.9163 35.3612 37.2623 34.6151 35.8414 33.978M35.8414 33.978V44.0237H20.336L20.3023 33.978M17.198 16.2433V9.41352C17.2595 7.07541 18.7301 2.34381 24.1201 2.1223C29.51 1.9008 31.1651 2.03001 31.319 2.1223C33.7494 2.27613 38.6471 3.94972 38.7948 9.41352C38.9376 14.699 38.9192 16.1498 38.89 16.2388M17.198 16.2433C17.198 16.0587 16.4597 15.8741 16.1828 15.8741C15.9059 15.8741 15.3521 19.0121 15.9059 21.0425C16.3489 22.6669 18.1825 24.9189 19.0439 25.8418C19.782 27.6133 20.653 29.1635 21.7394 30.4037M17.198 16.2433L19.5054 21.3194V18.1814C22.0896 16.3356 29.1039 13.7513 36.4874 18.1814V21.3194L38.8871 16.2433M38.8871 16.2433C38.888 16.2418 38.889 16.2403 38.89 16.2388M38.8871 16.2433C38.8881 16.2433 38.8891 16.2418 38.89 16.2388M34.457 30.2719C35.9063 28.6981 36.7332 27.0745 36.9489 25.5649C37.8349 24.8266 38.9794 22.7346 39.4408 21.7809C41.1944 17.3508 39.6254 16.2433 39.4408 15.9664C39.2943 15.7466 39.0146 16.0537 38.89 16.2388M34.457 30.2719C32.8048 32.066 30.4108 33.7125 28.3656 33.5945C25.4854 33.4283 23.3698 32.265 21.7394 30.4037" stroke="#083475" stroke-width="2"/>
</svg>
