<svg width="56" height="56" viewBox="0 0 56 56" fill="none" xmlns="http://www.w3.org/2000/svg">
<path d="M10.8603 12.6669C7.14107 16.8208 5.05881 22.1852 5.00142 27.7605C4.86007 40.5003 15.2613 50.976 28.0007 51C40.7222 51.0239 51 40.7183 51 28.0001C51 15.4772 40.9917 5.28657 28.5398 5.00027C28.4697 4.99802 28.3999 5.0099 28.3345 5.03521C28.2691 5.06053 28.2094 5.09875 28.1591 5.1476C28.1088 5.19646 28.0689 5.25494 28.0417 5.31956C28.0144 5.38419 28.0005 5.45363 28.0007 5.52376V15.5419" stroke="#083475" stroke-width="3" stroke-linecap="round" stroke-linejoin="round"/>
<path d="M23.9683 28.1614L14.8937 15.1855C14.7682 15.0058 14.7099 14.7875 14.7292 14.5691C14.7485 14.3507 14.844 14.1461 14.9991 13.991C15.1542 13.836 15.3589 13.7405 15.5774 13.7212C15.7959 13.7019 16.0142 13.7602 16.194 13.8857L29.1741 22.9573C29.9703 23.5305 30.5087 24.394 30.6729 25.361C30.8371 26.328 30.6139 27.3208 30.0516 28.1245C29.4893 28.9283 28.633 29.4784 27.668 29.6559C26.7031 29.8335 25.707 29.6241 24.8953 29.0731C24.5364 28.8245 24.2228 28.5161 23.9683 28.1614Z" fill="#083475"/>
</svg>
