<svg width="60" height="60" viewBox="0 0 60 60" fill="none" xmlns="http://www.w3.org/2000/svg">
<path fill-rule="evenodd" clip-rule="evenodd" d="M41.6903 6.57011C33.8249 4.81192 25.6683 4.81192 17.8028 6.57011L16.9553 6.75761C14.7429 7.25227 12.7108 8.35057 11.085 9.93053C9.45914 11.5105 8.30311 13.5102 7.74532 15.7076C5.75156 23.5639 5.75156 31.7938 7.74532 39.6501C8.27726 41.7458 9.35383 43.6635 10.8659 45.209C12.378 46.7544 14.2718 47.8726 16.3553 48.4501L17.5178 55.3901C17.5549 55.6105 17.6504 55.8169 17.7944 55.9878C17.9384 56.1587 18.1255 56.2879 18.3364 56.362C18.5472 56.436 18.7741 56.4521 18.9933 56.4087C19.2125 56.3653 19.4161 56.2639 19.5828 56.1151L26.4103 50.0076C31.5355 50.3204 36.6793 49.9105 41.6903 48.7901L42.5403 48.6026C44.7528 48.108 46.7848 47.0097 48.4106 45.4297C50.0365 43.8497 51.1925 41.85 51.7503 39.6526C53.7439 31.7963 53.7439 23.5665 51.7503 15.7101C51.1923 13.5124 50.0359 11.5124 48.4096 9.93246C46.7833 8.35248 44.7507 7.25435 42.5378 6.76011L41.6903 6.57011ZM19.9128 15.5051C19.4482 15.4375 18.9744 15.531 18.5703 15.7701H18.5353C17.5978 16.3201 16.7528 17.0126 16.0328 17.8276C15.4328 18.5201 15.1078 19.2201 15.0228 19.8951C14.9728 20.2951 15.0078 20.7001 15.1253 21.0826L15.1703 21.1076C15.8453 23.0901 16.7253 24.9976 17.8003 26.7926C19.1864 29.3138 20.8922 31.6456 22.8753 33.7301L22.9353 33.8151L23.0303 33.8851L23.0878 33.9526L23.1578 34.0126C25.2496 36.0017 27.5869 37.7156 30.1128 39.1126C33.0003 40.6851 34.7528 41.4276 35.8053 41.7376V41.7526C36.1128 41.8476 36.3928 41.8901 36.6753 41.8901C37.5717 41.8239 38.4201 41.4595 39.0853 40.8551C39.8978 40.1351 40.5853 39.2876 41.1203 38.3451V38.3276C41.6228 37.3776 41.4528 36.4826 40.7278 35.8751C39.2716 34.6027 37.6969 33.4725 36.0253 32.5001C34.9053 31.8926 33.7678 32.2601 33.3078 32.8751L32.3253 34.1151C31.8203 34.7301 30.9053 34.6451 30.9053 34.6451L30.8803 34.6601C24.0528 32.9176 22.2303 26.0051 22.2303 26.0051C22.2303 26.0051 22.1453 25.0651 22.7778 24.5851L24.0078 23.5951C24.5978 23.1151 25.0078 21.9801 24.3753 20.8601C23.4093 19.187 22.2814 17.6128 21.0078 16.1601C20.73 15.8182 20.3405 15.5854 19.9078 15.5026L19.9128 15.5051ZM31.4478 12.5001C31.1163 12.5001 30.7984 12.6318 30.5639 12.8662C30.3295 13.1007 30.1978 13.4186 30.1978 13.7501C30.1978 14.0816 30.3295 14.3996 30.5639 14.634C30.7984 14.8684 31.1163 15.0001 31.4478 15.0001C34.6103 15.0001 37.2353 16.0326 39.3128 18.0126C40.3803 19.0951 41.2128 20.3776 41.7578 21.7826C42.3053 23.1901 42.5553 24.6926 42.4903 26.1976C42.4834 26.3618 42.5089 26.5257 42.5654 26.68C42.6218 26.8343 42.7081 26.9759 42.8193 27.0969C43.0439 27.3411 43.3563 27.4862 43.6878 27.5001C44.0193 27.514 44.3428 27.3957 44.5871 27.1711C44.8313 26.9465 44.9764 26.6341 44.9903 26.3026C45.0679 24.4513 44.7606 22.6041 44.0878 20.8776C43.4122 19.143 42.3877 17.5654 41.0778 16.2426L41.0528 16.2176C38.4753 13.7551 35.2128 12.5001 31.4478 12.5001ZM31.3628 16.6101C31.0313 16.6101 30.7134 16.7418 30.4789 16.9762C30.2445 17.2107 30.1128 17.5286 30.1128 17.8601C30.1128 18.1916 30.2445 18.5096 30.4789 18.744C30.7134 18.9784 31.0313 19.1101 31.3628 19.1101H31.4053C33.6853 19.2726 35.3453 20.0326 36.5078 21.2801C37.7003 22.5651 38.3178 24.1626 38.2703 26.1376C38.2627 26.4691 38.3871 26.7901 38.6161 27.0299C38.8451 27.2697 39.16 27.4087 39.4916 27.4164C39.8231 27.424 40.1441 27.2996 40.3839 27.0706C40.6237 26.8415 40.7627 26.5266 40.7703 26.1951C40.8303 23.6026 39.9953 21.3651 38.3403 19.5801V19.5751C36.6478 17.7601 34.3253 16.8001 31.5303 16.6126L31.4878 16.6076L31.3628 16.6101ZM31.3153 20.7976C31.148 20.7829 30.9795 20.802 30.8197 20.8538C30.66 20.9056 30.5123 20.9891 30.3856 21.0992C30.2588 21.2094 30.1555 21.3439 30.0819 21.4949C30.0083 21.6458 29.9659 21.81 29.9571 21.9777C29.9484 22.1454 29.9735 22.3132 30.0311 22.471C30.0886 22.6287 30.1773 22.7733 30.292 22.896C30.4066 23.0188 30.5448 23.1171 30.6983 23.1853C30.8518 23.2534 31.0174 23.2899 31.1853 23.2926C32.2303 23.3476 32.8978 23.6626 33.3178 24.0851C33.7403 24.5101 34.0553 25.1926 34.1128 26.2601C34.1159 26.4279 34.1528 26.5933 34.2212 26.7465C34.2896 26.8997 34.3881 27.0375 34.5109 27.1518C34.6338 27.2662 34.7783 27.3546 34.936 27.4118C35.0937 27.4691 35.2614 27.494 35.4289 27.4851C35.5964 27.4762 35.7605 27.4337 35.9112 27.36C36.062 27.2864 36.1964 27.1832 36.3064 27.0565C36.4164 26.9298 36.4998 26.7823 36.5516 26.6227C36.6033 26.4631 36.6225 26.2947 36.6078 26.1276C36.5278 24.6276 36.0578 23.3026 35.0953 22.3276C34.1278 21.3526 32.8103 20.8776 31.3153 20.7976Z" fill="#FF9900"/>
</svg>
