<svg width="60" height="60" viewBox="0 0 60 60" fill="none" xmlns="http://www.w3.org/2000/svg">
<path d="M30.002 5C43.8095 5 55.002 16.1925 55.002 30C55.002 43.8075 43.8095 55 30.002 55C25.5839 55.0071 21.2436 53.8379 17.427 51.6125L5.01199 55L8.39199 42.58C6.16472 38.7622 4.99461 34.42 5.00199 30C5.00199 16.1925 16.1945 5 30.002 5ZM21.482 18.25L20.982 18.27C20.6583 18.2897 20.3419 18.3748 20.052 18.52C19.7808 18.6736 19.5332 18.8656 19.317 19.09C19.017 19.3725 18.847 19.6175 18.6645 19.855C17.7398 21.0573 17.2419 22.5333 17.2495 24.05C17.2545 25.275 17.5745 26.4675 18.0745 27.5825C19.097 29.8375 20.7795 32.225 22.9995 34.4375C23.5345 34.97 24.0595 35.505 24.6245 36.0025C27.383 38.4312 30.6701 40.1826 34.2245 41.1175L35.6445 41.335C36.107 41.36 36.5695 41.325 37.0345 41.3025C37.7626 41.2649 38.4735 41.0678 39.117 40.725C39.4444 40.5564 39.7639 40.3728 40.0745 40.175C40.0745 40.175 40.182 40.105 40.387 39.95C40.7245 39.7 40.932 39.5225 41.212 39.23C41.4195 39.015 41.5995 38.7625 41.737 38.475C41.932 38.0675 42.127 37.29 42.207 36.6425C42.267 36.1475 42.2495 35.8775 42.242 35.71C42.232 35.4425 42.0095 35.165 41.767 35.0475L40.312 34.395C40.312 34.395 38.137 33.4475 36.807 32.8425C36.6678 32.7817 36.5187 32.747 36.367 32.74C36.1959 32.7224 36.0231 32.7417 35.8601 32.7964C35.6971 32.8512 35.5477 32.9402 35.422 33.0575C35.4095 33.0525 35.242 33.195 33.4345 35.385C33.3307 35.5244 33.1878 35.6298 33.024 35.6876C32.8601 35.7455 32.6828 35.7533 32.5145 35.71C32.3516 35.6663 32.1921 35.6112 32.037 35.545C31.727 35.415 31.6195 35.365 31.407 35.275C29.9722 34.6489 28.6437 33.8029 27.4695 32.7675C27.1545 32.4925 26.862 32.1925 26.562 31.9025C25.5785 30.9606 24.7213 29.895 24.012 28.7325L23.8645 28.495C23.7585 28.3354 23.6729 28.1633 23.6095 27.9825C23.5145 27.615 23.762 27.32 23.762 27.32C23.762 27.32 24.3695 26.655 24.652 26.295C24.927 25.945 25.1595 25.605 25.3095 25.3625C25.6045 24.8875 25.697 24.4 25.542 24.0225C24.842 22.3125 24.117 20.61 23.372 18.92C23.2245 18.585 22.787 18.345 22.3895 18.2975C22.2545 18.2825 22.1195 18.2675 21.9845 18.2575C21.6488 18.2408 21.3123 18.2442 20.977 18.2675L21.482 18.25Z" fill="#FF9900"/>
</svg>
